<?xml version="1.0" encoding="iso-8859-1"?>
<!-- Generator: Adobe Illustrator 16.0.0, SVG Export Plug-In . SVG Version: 6.00 Build 0)  -->
<!DOCTYPE svg PUBLIC "-//W3C//DTD SVG 1.1//EN" "http://www.w3.org/Graphics/SVG/1.1/DTD/svg11.dtd">
<svg version="1.1" id="Capa_1" xmlns="http://www.w3.org/2000/svg" xmlns:xlink="http://www.w3.org/1999/xlink" x="0px" y="0px"
	 width="98.445px" height="98.444px" viewBox="0 0 98.445 98.444" style="enable-background:new 0 0 98.445 98.444;"
	 xml:space="preserve">
<g>
	<g>
		<circle cx="69.398" cy="10.595" r="10.595"/>
		<path d="M90.184,49.87l-4.899-22.869c-0.913-4.261-5.232-6.306-8.901-6.413c0,0-1.323,0.01-2.438,0.222
			c-1.166,0.223-2.188,0.784-2.188,0.784c-2.703,1.31-5.29,4.02-5.607,7.308c-1.113,10.537-10.577,23.49-10.665,23.611
			c-1.345,1.832-0.949,4.406,0.882,5.75c0.733,0.539,1.586,0.799,2.432,0.799c1.265,0,2.513-0.582,3.318-1.68
			c0.251-0.343,3.919-5.387,7.192-12.13l1.861,8.691c0.598,2.791,2.558,4.582,4.875,5.505l0.021,33.392
			c0.002,3.096,2.513,5.604,5.609,5.604c0.001,0,0.002,0,0.003,0c3.099-0.001,5.607-2.515,5.605-5.612l-0.021-35.291
			C89.471,55.657,90.836,52.924,90.184,49.87z"/>
		<path d="M53.543,90.344h-9.729v-3.896l-11.62-6.663h-15.29l-4.75-3.815c-1.075-0.863-2.645-0.691-3.508,0.383
			s-0.691,2.645,0.382,3.506l4.847,3.895v4.07c-0.001,0.031,0,0.062,0,0.093v0.168c0,0.007,0.016,0.021,0.019,0.027
			c0.063,0.713,0.423,1.396,1.06,1.833l2.561,1.76l-5.316,0.006c-1.378,0.002-2.493,1.122-2.491,2.5
			c0.002,1.377,1.119,2.49,2.495,2.49c0.001,0,0.003,0,0.004,0l13.326-0.021c1.092-0.002,2.057-0.713,2.379-1.756
			c0.323-1.043-0.069-2.177-0.97-2.795l-4.282-2.892l0.519-0.429l4.604,2.306c1.376,0.946,1.991,2.62,1.591,4.224h13.444
			c0.002,0,0.005,0,0.007,0h10.72c1.38,0,2.495-1.117,2.495-2.496S54.923,90.344,53.543,90.344z"/>
		<path d="M50.273,74.713c-1.542-1.453-2.059-3.154-3.79-4.386c-0.303-0.215-0.607-0.433-0.929-0.614
			c-0.193-0.107-0.254-0.234-0.233-0.443c0.073-0.715,0.146-1.43,0.203-2.147c0.103-1.284-0.268-2.45-1.298-3.208
			c-0.414-0.304-2.454-1.293-3.343,2.09c-0.194,0.736-0.456,1.469-0.807,2.139c-1.283,2.467-2.912,4.719-4.472,7.014
			c-0.712,1.046-1.422,2.092-2.131,3.136l10.911,6.214c0,0,2.102-2.299,2.397-2.17c0.41,0.182,0.821,0.358,1.232,0.537
			c1.201,0.521,2.453,0.766,3.766,0.688c2.23-0.129,4.553-1.313,4.765-3.987C56.742,77.117,50.793,75.203,50.273,74.713z"/>
	</g>
</g>
<g>
</g>
<g>
</g>
<g>
</g>
<g>
</g>
<g>
</g>
<g>
</g>
<g>
</g>
<g>
</g>
<g>
</g>
<g>
</g>
<g>
</g>
<g>
</g>
<g>
</g>
<g>
</g>
<g>
</g>
</svg>
