<?xml version="1.0" encoding="iso-8859-1"?>
<!-- Generator: Adobe Illustrator 16.0.0, SVG Export Plug-In . SVG Version: 6.00 Build 0)  -->
<!DOCTYPE svg PUBLIC "-//W3C//DTD SVG 1.1//EN" "http://www.w3.org/Graphics/SVG/1.1/DTD/svg11.dtd">
<svg version="1.1" id="Capa_1" xmlns="http://www.w3.org/2000/svg" xmlns:xlink="http://www.w3.org/1999/xlink" x="0px" y="0px"
	 width="95.698px" height="95.698px" viewBox="0 0 95.698 95.698" style="enable-background:new 0 0 95.698 95.698;"
	 xml:space="preserve">
<g>
	<g>
		<circle cx="73.874" cy="9.997" r="9.997"/>
		<path d="M78.339,20.601l-0.029-0.004c0,0-1.194-0.25-2.267-0.274c-1.118-0.026-2.173,0.289-2.173,0.289
			c-2.753,0.673-5.674,2.659-6.619,5.628c-1.881,7.276-13.287,10.293-17.129,10.857c-2.122,0.304-3.596,2.271-3.292,4.392
			c0.277,1.936,1.938,3.332,3.837,3.332c0.184,0,0.368-0.013,0.555-0.04c0.514-0.073,8.935-1.345,15.705-6.178L66.92,50.337
			c-0.002,3.259,2.121,5.562,4.694,6.771l0.02,33.066c0.002,2.922,2.371,5.289,5.293,5.289h0.002c2.924,0,5.293-2.373,5.291-5.295
			l-0.022-34.049c1.813-1.344,3.067-3.314,3.069-5.771l0.013-22.067C85.281,24.169,81.701,21.427,78.339,20.601z"/>
		<path d="M47.929,92.531L43.486,70.57l-12.652,2.484l-13.118,19.26h-5.605c-0.935,0-1.692,0.757-1.692,1.691
			c0,0.936,0.757,1.692,1.692,1.692l26.095-0.024c1.435,0,2.597-1.189,2.595-2.625c-0.001-1.434-1.164-2.595-2.598-2.595
			c-0.001,0-0.002,0-0.002,0l-2.336,0.002l4.471-8.903l2.506,12.037c0.255,1.227,1.336,2.068,2.541,2.068
			c0.175,0,0.354-0.018,0.532-0.055C47.319,95.311,48.221,93.936,47.929,92.531z"/>
		<path d="M41.185,57.547c-2.049-0.025-3.531-0.896-5.57-0.641c-0.355,0.045-0.715,0.09-1.063,0.171
			c-0.208,0.048-0.336,0-0.457-0.163c-0.416-0.559-0.833-1.113-1.261-1.662c-0.768-0.98-1.796-1.568-3.025-1.433
			c-0.494,0.053-2.595,0.687-1.012,3.677c0.344,0.65,0.637,1.342,0.828,2.051l1.946,11.038l11.837-2.209c0,0-0.01-3.015,0.286-3.116
			c0.409-0.14,0.819-0.283,1.229-0.426c1.197-0.415,2.247-1.062,3.13-1.977c1.502-1.553,2.381-3.918,0.781-5.961
			C47.365,55.021,41.878,57.555,41.185,57.547z"/>
	</g>
</g>
<g>
</g>
<g>
</g>
<g>
</g>
<g>
</g>
<g>
</g>
<g>
</g>
<g>
</g>
<g>
</g>
<g>
</g>
<g>
</g>
<g>
</g>
<g>
</g>
<g>
</g>
<g>
</g>
<g>
</g>
</svg>
