<?xml version="1.0" encoding="iso-8859-1"?>
<!-- Generator: Adobe Illustrator 16.0.0, SVG Export Plug-In . SVG Version: 6.00 Build 0)  -->
<!DOCTYPE svg PUBLIC "-//W3C//DTD SVG 1.1//EN" "http://www.w3.org/Graphics/SVG/1.1/DTD/svg11.dtd">
<svg version="1.1" id="Capa_1" xmlns="http://www.w3.org/2000/svg" xmlns:xlink="http://www.w3.org/1999/xlink" x="0px" y="0px"
	 width="97.969px" height="97.969px" viewBox="0 0 97.969 97.969" style="enable-background:new 0 0 97.969 97.969;"
	 xml:space="preserve">
<g>
	<g>
		<circle cx="56.861" cy="10.818" r="10.818"/>
		<path d="M78.084,50.921l-5.001-23.35c-0.934-4.35-5.347-6.438-9.091-6.547l-0.031,0.002c0,0-1.32,0.007-2.459,0.224
			c-1.19,0.229-2.23,0.8-2.23,0.8c-1.188,0.576-2.354,1.42-3.323,2.459c-4.103-2.571-10.794-6.458-17.591-9.102
			c-2.157-0.84-4.595,0.229-5.437,2.392c-0.841,2.162,0.23,4.596,2.392,5.437c7.801,3.035,15.75,8.07,18.683,10.009l4.676,21.833
			c0.027,0.136,0.069,0.261,0.104,0.391c-0.621-0.398-1.411-0.521-2.159-0.251l-8.309,3.022l-4.581-2.66l-10.15,7.451l-7.913,13.941
			l-4.808,1.908c-0.926,0.367-1.379,1.415-1.011,2.34c0.28,0.708,0.959,1.139,1.677,1.139c0.221,0,0.446-0.041,0.663-0.127
			l5.188-2.06l3.28,1.86L28.74,94.52c-0.205,1.336,0.712,2.584,2.048,2.789c0.125,0.02,0.251,0.028,0.374,0.028
			c1.188,0,2.23-0.867,2.416-2.077l1.17-7.641l0.295,7.109c0.055,1.315,1.139,2.346,2.443,2.346c0.035,0,0.068-0.002,0.104-0.002
			c1.351-0.057,2.399-1.197,2.344-2.547l-0.461-11.131L50.279,62.73l8.014-2.916c0.89-0.324,1.467-1.113,1.58-1.992
			c0.943,1.334,2.287,2.279,3.777,2.873l-0.005,31.549c0.002,3.162,2.565,5.725,5.728,5.725c0.001,0,0.002,0,0.004,0
			c3.162-0.002,5.726-2.566,5.724-5.73l0.004-33.49C77.357,56.826,78.752,54.037,78.084,50.921z"/>
		<path d="M24.774,50.283c0.588,0.461,1.146,0.979,1.616,1.556c1.726,2.112,3.123,4.452,4.59,6.747
			c0.667,1.048,1.334,2.093,1.999,3.136l9.886-7.149c0,0-1.315-3.062-1.085-3.277c0.322-0.301,0.643-0.602,0.962-0.902
			c0.937-0.881,1.64-1.916,2.078-3.129c0.748-2.061,0.579-4.613-1.748-5.841c-2.136-1.127-6.164,3.492-6.81,3.771
			c-1.907,0.828-3.64,0.635-5.422,1.718c-0.309,0.189-0.624,0.38-0.913,0.6c-0.172,0.131-0.31,0.139-0.49,0.038
			c-0.617-0.343-1.233-0.686-1.855-1.016c-1.117-0.589-2.313-0.708-3.396-0.072C23.752,46.715,22.071,48.173,24.774,50.283z"/>
	</g>
</g>
<g>
</g>
<g>
</g>
<g>
</g>
<g>
</g>
<g>
</g>
<g>
</g>
<g>
</g>
<g>
</g>
<g>
</g>
<g>
</g>
<g>
</g>
<g>
</g>
<g>
</g>
<g>
</g>
<g>
</g>
</svg>
