<?xml version="1.0" encoding="iso-8859-1"?>
<!-- Generator: Adobe Illustrator 16.0.0, SVG Export Plug-In . SVG Version: 6.00 Build 0)  -->
<!DOCTYPE svg PUBLIC "-//W3C//DTD SVG 1.1//EN" "http://www.w3.org/Graphics/SVG/1.1/DTD/svg11.dtd">
<svg version="1.1" id="Capa_1" xmlns="http://www.w3.org/2000/svg" xmlns:xlink="http://www.w3.org/1999/xlink" x="0px" y="0px"
	 width="97.827px" height="97.826px" viewBox="0 0 97.827 97.826" style="enable-background:new 0 0 97.827 97.826;"
	 xml:space="preserve">
<g>
	<g>
		<path d="M94.827,57.419c3-4.3-5.9-14.2-6.3-15.7c-1.301-4.3-0.4-8-2.301-12.1c-0.3-0.7-0.6-1.4-1-2.1c-0.199-0.4-0.199-0.7,0-1.1
			c0.9-1.2,1.801-2.5,2.7-3.7c1.601-2.2,2.101-4.8,1.101-7.3c-0.4-1-3.101-5-8.4,0.2c-1.2,1.1-2.4,2.2-3.8,3.1
			c-5,3.2-10.4,5.5-15.8,8.1c-2.4,1.2-4.9,2.3-7.301,3.5l14.601,22.8c0,0,5.1-1.601,5.5-1c0.6,0.8,1.1,1.5,1.7,2.3
			c1.6,2.3,3.699,4,6.199,5.3C86.027,61.719,91.626,62.019,94.827,57.419z"/>
		<path d="M16.527,31.019l-8.9-7.2c-2-1.6-5-1.3-6.6,0.7c-1.601,2-1.301,5,0.699,6.6l9.101,7.3v19.9c0,0.1-8,15.8-8,15.8
			c-1.2,2.3-0.3,5.1,2,6.3c0.7,0.4,1.399,0.5,2.2,0.5c1.699,0,3.3-0.9,4.199-2.5l8.101-15.5l9.1,15.7c0.9,1.5,2.5,2.399,4.101,2.399
			c0.8,0,1.6-0.199,2.3-0.6c2.3-1.3,3-4.2,1.7-6.4l-7.9-13.699h29.3v16.1c0,2.6,2.101,4.7,4.7,4.7s4.7-2.101,4.7-4.7v-17.8
			c0-0.101-18.5-27.6-18.5-27.6H16.527z"/>
		<path d="M94.527,77.619h-0.2l-0.4-6.9c0-0.2,0-0.3,0-0.399c1.601-0.101,2.9-1.4,2.9-3.101s-1.4-3.1-3.101-3.1h-0.3
			c-0.8,0-1.5,0.3-2,0.8c-0.5-0.5-1.2-0.8-2-0.8h-0.3c-1.7,0-3.1,1.399-3.1,3.1c0,1.601,1.199,2.9,2.699,3c0,0.101,0,0.3,0,0.5
			l-0.399,6.9l0,0c-2,0-3.3,1.6-3.3,3.6s1.6,3.601,3.6,3.601h0.4c0.899,0,1.699-0.301,2.399-0.9c0.601,0.5,1.5,0.9,2.4,0.9h0.399
			c2,0,3.601-1.601,3.601-3.601S96.527,77.619,94.527,77.619z"/>
	</g>
</g>
<g>
</g>
<g>
</g>
<g>
</g>
<g>
</g>
<g>
</g>
<g>
</g>
<g>
</g>
<g>
</g>
<g>
</g>
<g>
</g>
<g>
</g>
<g>
</g>
<g>
</g>
<g>
</g>
<g>
</g>
</svg>
