<?xml version="1.0" encoding="iso-8859-1"?>
<!-- Generator: Adobe Illustrator 16.0.0, SVG Export Plug-In . SVG Version: 6.00 Build 0)  -->
<!DOCTYPE svg PUBLIC "-//W3C//DTD SVG 1.1//EN" "http://www.w3.org/Graphics/SVG/1.1/DTD/svg11.dtd">
<svg version="1.1" id="Capa_1" xmlns="http://www.w3.org/2000/svg" xmlns:xlink="http://www.w3.org/1999/xlink" x="0px" y="0px"
	 width="97.91px" height="97.91px" viewBox="0 0 97.91 97.91" style="enable-background:new 0 0 97.91 97.91;" xml:space="preserve"
	>
<g>
	<g>
		<path d="M91.079,80.894c-0.019,0-0.034,0-0.054,0l-7.646-0.017c0,0,8.967-7.575,9.196-7.838c2.508-2.281,4.02-5.494,3.253-9.068
			L89.86,36.116c-1.11-5.189-6.372-7.68-10.842-7.81l-0.038,0.002c0,0-1.573,0.009-2.933,0.268
			c-1.418,0.271-2.666,0.954-2.666,0.954c-2.159,1.047-4.252,2.83-5.552,5.06c-0.092,0.14-0.196,0.268-0.274,0.42
			c-4.854,9.343-10.362,14.734-19.013,18.605c-2.525,1.131-3.657,4.094-2.525,6.619c0.832,1.861,2.66,2.965,4.574,2.965
			c0.686,0,1.381-0.142,2.046-0.438c6.575-2.944,11.785-6.677,16.197-11.724l3.834,17.894c0.186,0.868,0.488,1.649,0.87,2.362
			l-13.521,11.32c-2.211,1.85-3.021,4.889-2.025,7.596c0.988,2.689,3.549,4.475,6.412,4.475c0.017,0,0.032,0,0.052,0h26.674
			c3.773-0.029,6.809-3.311,6.78-7.083C97.88,83.844,94.829,80.894,91.079,80.894z"/>
		<circle cx="70.511" cy="16.132" r="12.905"/>
		<path d="M8.454,69.072l-4.56-3.662c-1.03-0.83-2.541-0.664-3.366,0.367c-0.828,1.03-0.664,2.538,0.366,3.366l4.651,3.735v10.162
			c0,0.049-4.079,8.035-4.079,8.035c-0.61,1.174-0.153,2.619,1.019,3.229c0.354,0.183,0.731,0.271,1.104,0.271
			c0.863,0,1.699-0.47,2.125-1.289l4.122-7.92l4.612,8.01c0.442,0.77,1.248,1.199,2.078,1.199c0.404,0,0.813-0.103,1.192-0.32
			c1.146-0.659,1.54-2.123,0.88-3.27l-4.025-6.988h14.904v8.185c0,1.321,1.073,2.396,2.395,2.396c1.323,0,2.396-1.072,2.396-2.396
			v-9.058c0.003-0.03,0.017-0.055,0.017-0.084v-7.572L23.13,69.072H8.454L8.454,69.072z"/>
		<path d="M40.482,64.203c-1.481-1.395-1.978-3.025-3.64-4.209c-0.289-0.205-0.583-0.414-0.891-0.59
			c-0.186-0.104-0.244-0.225-0.225-0.425c0.072-0.687,0.14-1.374,0.195-2.062c0.099-1.232-0.257-2.354-1.246-3.08
			c-0.396-0.291-2.356-1.24-3.208,2.006c-0.186,0.706-0.438,1.408-0.775,2.053c-1.231,2.367-2.795,4.529-4.29,6.732
			c-0.684,1.004-1.365,2.008-2.047,3.011l10.473,5.963c0,0,2.018-2.207,2.302-2.083c0.393,0.174,0.79,0.344,1.184,0.516
			c1.151,0.5,2.354,0.733,3.616,0.66c2.139-0.125,4.368-1.262,4.572-3.828C46.691,66.512,40.981,64.674,40.482,64.203z"/>
	</g>
</g>
<g>
</g>
<g>
</g>
<g>
</g>
<g>
</g>
<g>
</g>
<g>
</g>
<g>
</g>
<g>
</g>
<g>
</g>
<g>
</g>
<g>
</g>
<g>
</g>
<g>
</g>
<g>
</g>
<g>
</g>
</svg>
