<?xml version="1.0" encoding="iso-8859-1"?>
<!-- Generator: Adobe Illustrator 16.0.0, SVG Export Plug-In . SVG Version: 6.00 Build 0)  -->
<!DOCTYPE svg PUBLIC "-//W3C//DTD SVG 1.1//EN" "http://www.w3.org/Graphics/SVG/1.1/DTD/svg11.dtd">
<svg version="1.1" id="Capa_1" xmlns="http://www.w3.org/2000/svg" xmlns:xlink="http://www.w3.org/1999/xlink" x="0px" y="0px"
	 width="98.538px" height="98.538px" viewBox="0 0 98.538 98.538" style="enable-background:new 0 0 98.538 98.538;"
	 xml:space="preserve">
<g>
	<g>
		<circle cx="66.465" cy="10.188" r="10.188"/>
		<path d="M69.003,20.967l-2.538,2.555l-2.46-2.584c-0.008,0.004-0.017,0.003-0.024,0.006c-1.338,0.468-4.047,1.713-4.047,1.713
			c-8.075,3.457-9.315,3.99-15.829-2.211c-1.289-1.229-3.184-1.399-4.659-0.569l-7.927-6.787c-0.472-0.404-1.182-0.35-1.586,0.123
			c-0.327,0.381-0.34,0.911-0.087,1.317l-2.226,2.599c-0.247,0.289-0.214,0.723,0.075,0.971c0.289,0.246,0.723,0.213,0.969-0.076
			l2.182-2.548l0.854,0.731l-2.182,2.548c-0.247,0.289-0.213,0.724,0.075,0.97c0.288,0.247,0.722,0.214,0.969-0.074l2.182-2.549
			l0.855,0.731l-2.182,2.549c-0.247,0.288-0.213,0.722,0.075,0.969c0.289,0.248,0.722,0.214,0.969-0.075l2.182-2.548l0.855,0.731
			l-2.182,2.549c-0.247,0.289-0.214,0.722,0.075,0.969s0.722,0.214,0.969-0.075l2.182-2.548l1.344,1.151
			c-0.791,1.52-0.541,3.429,0.763,4.67c5.341,5.086,9.26,6.959,13.249,6.959c1.352,0,2.715-0.223,4.14-0.602v19.776
			c0,1.236,0.279,2.375,0.759,3.402c-0.006,0.096-0.003,6.572-0.003,6.572h15.626v8.771h-4.344v26.024
			c0.853,0.896,2.047,1.459,3.38,1.459c2.581,0,4.674-2.095,4.674-4.675l0.004-38.147c0.496-1.043,0.76-2.149,0.76-3.407V41.321
			c0,0,1.672,3.406,0.813,12.25c-0.211,2.175,1.457,4.08,3.635,4.252c0.105,0.009,0.21,0.013,0.313,0.013
			c2.044,0,3.776-1.573,3.938-3.646C87.15,34.266,78.564,23.883,69.003,20.967z M66.49,43.684h-0.048l-2.457-3.363l2.457-16.42
			h0.048l2.457,16.42L66.49,43.684z"/>
		<path d="M56.772,93.866c0,2.151,1.463,3.944,3.441,4.487V71.055h-3.443L56.772,93.866z"/>
		<polygon points="70.919,63.745 13.533,63.745 13.533,69.516 17.876,69.516 17.876,97.943 22.738,97.943 22.738,69.516 
			61.714,69.516 61.714,97.943 66.576,97.943 66.576,69.516 70.919,69.516 		"/>
		<path d="M17.374,53.447c0,0.044-3.392,6.683-3.392,6.683c-0.508,0.978-0.128,2.179,0.847,2.687
			c0.294,0.154,0.608,0.227,0.917,0.227c0.719,0,1.413-0.391,1.768-1.072l3.427-6.586l3.835,6.66
			c0.369,0.639,1.038,0.998,1.728,0.998c0.337,0,0.678-0.086,0.992-0.266c0.953-0.549,1.281-1.768,0.732-2.721l-3.346-5.812h12.393
			v6.806c0,1.1,0.892,1.991,1.992,1.991s1.991-0.894,1.991-1.991V53.52c0.002-0.025,0.014-0.045,0.014-0.07v-6.297l-9.275-5.318
			H19.791L16,38.789c-0.858-0.689-2.112-0.553-2.8,0.305c-0.688,0.857-0.552,2.111,0.305,2.801l3.868,3.107L17.374,53.447
			L17.374,53.447z"/>
		<path d="M41.598,29.166c-0.33-0.244-1.959-1.033-2.668,1.668c-0.154,0.586-0.364,1.17-0.644,1.707
			c-1.024,1.967-2.324,3.766-3.568,5.598c-0.568,0.834-1.136,1.67-1.702,2.504l8.708,4.959c0,0,1.679-1.836,1.915-1.732
			c0.326,0.145,0.655,0.285,0.983,0.428c0.958,0.416,1.958,0.611,3.006,0.549c1.78-0.104,3.635-1.049,3.805-3.184
			c0.155-1.957-4.593-3.486-5.008-3.877c-1.231-1.16-1.644-2.518-3.026-3.502c-0.241-0.17-0.485-0.344-0.741-0.49
			c-0.154-0.086-0.203-0.186-0.186-0.354c0.059-0.57,0.117-1.143,0.162-1.713C42.716,30.702,42.42,29.77,41.598,29.166z"/>
	</g>
</g>
<g>
</g>
<g>
</g>
<g>
</g>
<g>
</g>
<g>
</g>
<g>
</g>
<g>
</g>
<g>
</g>
<g>
</g>
<g>
</g>
<g>
</g>
<g>
</g>
<g>
</g>
<g>
</g>
<g>
</g>
</svg>
