<?xml version="1.0" encoding="iso-8859-1"?>
<!-- Generator: Adobe Illustrator 16.0.0, SVG Export Plug-In . SVG Version: 6.00 Build 0)  -->
<!DOCTYPE svg PUBLIC "-//W3C//DTD SVG 1.1//EN" "http://www.w3.org/Graphics/SVG/1.1/DTD/svg11.dtd">
<svg version="1.1" id="Capa_1" xmlns="http://www.w3.org/2000/svg" xmlns:xlink="http://www.w3.org/1999/xlink" x="0px" y="0px"
	 width="97.541px" height="97.541px" viewBox="0 0 97.541 97.541" style="enable-background:new 0 0 97.541 97.541;"
	 xml:space="preserve">
<g>
	<g>
		<path d="M69.688,58.621c-1.613-0.913-2.939-2.333-3.61-4.355l-2.291-6.899c-1.817,3.001-4.828,5.922-9.852,9.413
			c-0.761,0.529-1.629,0.783-2.49,0.783c-1.382,0-2.739-0.655-3.589-1.875c-1.375-1.979-0.887-4.703,1.093-6.08
			c8.792-6.112,8.798-8.208,8.925-17.026c0.115-8.029,2.157-10.692,5.067-12.522c0,0,1.016-0.708,2.221-1.079
			c1.151-0.354,2.517-0.511,2.517-0.511l0.031-0.007c3.883-0.313,8.679,1.344,10.139,5.734l7.823,23.565
			c1,3.016,0.005,5.934-1.938,8.147c-3.323,7.766-6.836,16.716-7.521,19.504c0.902,2.169,4.904,7.619,9.002,12.205
			c2.189,2.451,1.98,6.217-0.471,8.408c-1.138,1.016-2.556,1.516-3.969,1.516c-1.636,0-3.265-0.67-4.438-1.984
			C63.681,81.409,64.104,76.491,64.245,74.874C64.492,72.006,67.045,65.125,69.688,58.621z"/>
		<circle cx="55.505" cy="11.248" r="11.248"/>
		<path d="M37.545,73.408c0.838-1.042,2.36-1.207,3.398-0.374c1.041,0.835,1.208,2.356,0.374,3.397l-4.568,5.695l9.545-0.016
			l10.899-3.963c1.257-0.459,2.643,0.189,3.099,1.445c0.457,1.254-0.19,2.641-1.445,3.098l-10.05,3.652l0.013,7.354l7.364-0.007
			c0.962,0.007,1.735,0.842,1.729,1.804c-0.006,0.958-0.784,1.705-1.74,1.705c-0.004,0-0.007,0-0.013,0l-8.301-0.026h-0.002
			c-0.989,0.006-1.936-0.002-2.857-0.018l-1.62-0.012c-0.123,0-0.24-0.015-0.356-0.039c-23.223-0.809-23.218-8.496-23.218-8.496
			l10.322-5.942L37.545,73.408z"/>
		<path d="M11.881,70.889c1.129-0.513,2.289-0.269,3.325,0.428c0.577,0.39,1.147,0.789,1.717,1.191
			c0.165,0.118,0.301,0.125,0.484,0.014c0.309-0.186,0.635-0.34,0.96-0.492c1.862-0.877,3.545-0.504,5.504-1.116
			c0.662-0.207,5.104-4.319,7.082-2.987c2.157,1.448,2.054,3.973,1.104,5.918c-0.559,1.146-1.357,2.086-2.368,2.854
			c-0.346,0.262-0.692,0.523-1.04,0.785c-0.249,0.188,0.694,3.057,0.694,3.057l-10.43,6.262c-0.544-1.097-1.091-2.191-1.636-3.291
			c-1.197-2.408-2.325-4.852-3.796-7.107c-0.402-0.614-0.896-1.184-1.426-1.695C9.624,72.348,11.427,71.094,11.881,70.889z"/>
	</g>
</g>
<g>
</g>
<g>
</g>
<g>
</g>
<g>
</g>
<g>
</g>
<g>
</g>
<g>
</g>
<g>
</g>
<g>
</g>
<g>
</g>
<g>
</g>
<g>
</g>
<g>
</g>
<g>
</g>
<g>
</g>
</svg>
