
<svg xmlns="http://www.w3.org/2000/svg" height="415" width="2460"><path d="M161 367.715c-2.554-2.553-2.645-8.106-.171-10.345 5.993-5.423 12.764 4.62 6.857 10.17-2.866 2.693-4.135 2.726-6.686.175zm124 0c-2.554-2.553-2.645-8.106-.171-10.345 5.993-5.423 12.764 4.62 6.857 10.17-2.866 2.693-4.135 2.726-6.686.175zm-104.345-14.829c-.91-1.005-1.655-3.47-1.655-5.477 0-2.81.588-4.033 2.557-5.323 2.423-1.588 2.7-1.57 5.25.325 3.222 2.395 3.947 6.504 1.743 9.869-1.906 2.909-5.558 3.19-7.895.606zm84 0c-3.407-3.764-.75-12.17 3.845-12.17 2.432 0 5.5 3.78 5.5 6.777 0 6.11-5.713 9.407-9.345 5.393zm-111.091-9.3c-2.96-2.328-3.372-6.272-1.007-9.648 3.148-4.496 9.443-1.553 9.443 4.415 0 5.728-4.365 8.436-8.436 5.234zm140.47.833c-6.654-3.317-2.425-14.987 4.472-12.34 2.434.934 3.985 5.345 2.923 8.312-1.403 3.919-4.371 5.536-7.395 4.028z" fill="#a29fa1"/><path d="M276.07 224.4c-14.386-3.122-25.884-11.082-30.793-21.316-2.15-4.485-2.794-7.497-3.132-14.669-.38-8.088-.099-10.01 2.712-18.5 6.87-20.75 19.45-42.372 29.214-50.215 8.59-6.9 15.458-4.41 30.868 11.19 11.081 11.219 19.08 22.077 25.909 35.179 6.082 11.667 8.251 19.164 8.342 28.836.081 8.59-1.81 13.369-7.413 18.728-10.4 9.95-36.356 14.965-55.707 10.767z" fill="#b2599a"/><path d="M166.672 414.022c-2.613-.195-4.75-.729-4.75-1.187 0-.459-1.688-1.142-3.75-1.519-14.066-2.567-32.018-17.261-39.74-32.527-6.214-12.283-8.947-31.192-6.289-43.51 1.242-5.756 1.417-5.996 4.287-5.879 1.645.068 4.786.968 6.978 2.002l3.986 1.879.014 12.999c.013 12.548.125 13.233 3.229 19.786 13.472 28.441 50.431 36.28 73.688 15.627 10.498-9.323 15.85-21.743 15.385-35.702l-.288-8.626-8.5-2.878c-19.661-6.658-29.653-18.654-29.412-35.31.21-14.439 12.655-27.71 30.912-32.967 7.99-2.301 23.01-2.301 31 0 18.263 5.258 30.91 18.761 30.974 33.068.073 16.676-9.89 28.578-29.474 35.209l-8.5 2.878-.288 8.626c-.466 13.959 4.887 26.38 15.385 35.702 23.021 20.443 59.417 13.08 73.192-14.807 3.7-7.489 3.711-7.554 3.746-20.56l.035-13.048 3.965-1.878c2.18-1.032 5.311-1.932 6.957-2 2.87-.117 3.045.123 4.287 5.878 1.882 8.723.918 23.196-2.198 33.022-6.356 20.043-21.524 35.87-39.962 41.698-3.916 1.237-7.4 2.643-7.745 3.124-.857 1.196-20.967 1.112-21.748-.09-.344-.531-2.295-1.272-4.336-1.647-2.04-.375-7.44-2.547-12-4.826-8.153-4.076-17.554-12.253-25.04-21.78l-2.75-3.5-2.75 3.5c-7.486 9.527-16.887 17.704-25.04 21.78-4.56 2.279-9.96 4.45-12 4.826-2.04.375-3.935.998-4.21 1.385-.66.928-11.256 1.697-17.25 1.252zm44.78-123.692c6.274-2.621 7.261-10.153 1.636-12.483-5.925-2.454-12.57 2.007-11.988 8.049.229 2.37 1.046 3.7 2.822 4.595 3.158 1.59 3.351 1.585 7.53-.16zm68.383-90.476c-6.813-2.147-12.344-9.642-13.536-18.345-.501-3.651.909-11.73 2.047-11.73.148 0 1.671.699 3.385 1.554 5.383 2.685 10.55-1.798 10.44-9.058l-.068-4.497h3.874c4.668 0 9.917 4.133 13.217 10.406 4.808 9.14 1.408 24.554-6.487 29.407-3.95 2.428-9.34 3.376-12.872 2.263zm-118.413-1.936c-4.176-2.58-6.463-5.37-8.051-9.824-1.417-3.971-1.848-12.226-.836-16 .504-1.88.908-2.036 2.912-1.122 5.583 2.544 10.292-2.372 8.2-8.56-1.27-3.758.33-4.843 6.397-4.337 5.966.497 10.113 3.507 13.032 9.46 4.921 10.034 2.047 24.317-5.993 29.78-4.48 3.044-11.284 3.306-15.661.603zm-133.618-56.52c-5.708-2.04-10.493-5.371-14.888-10.364-4.039-4.588-9.994-15.651-9.994-18.565 0-.838-.493-1.688-1.095-1.89-1.404-.467-1.326-16.16.082-16.63.557-.185 1.013-1.183 1.013-2.217 0-3.535 4.11-12.865 8.88-20.161 11.203-17.134 26.078-30.997 51.19-47.708 14.85-9.883 29.245-17.827 36.43-20.106 2.2-.698 4.278-1.696 4.617-2.218.785-1.207 14.873-1.342 15.737-.15.355.489 2.81 1.909 5.456 3.155 12.8 6.03 25.79 24.809 37.99 54.917 2.776 6.852 2.84 6.67-3.749 10.783-2.415 1.508-3.032 1.587-3.407.438-1.045-3.2-18.52-36.597-21.36-40.823-4.645-6.912-7.914-10.08-10.399-10.08-4.838 0-7.654 6.811-14.885 36-9.066 36.598-15.148 49.473-30.923 65.454-16.92 17.14-36.908 25.091-50.695 20.165zm377.397-.976c-17.106-6.52-36.287-24.706-45.501-43.144-3.472-6.946-9.037-24.307-13.303-41.5-7.29-29.377-10.024-36-14.86-36-4.47 0-10.338 8.49-23.015 33.293-4.556 8.914-8.49 16.839-8.743 17.61-.376 1.15-.993 1.07-3.408-.437-6.597-4.118-6.506-3.789-3.266-11.757 11.887-29.233 24.155-47.134 36.544-53.324 3.175-1.587 6.063-3.285 6.418-3.775.942-1.298 15.215-1.028 15.657.296.2.602 1.126 1.094 2.058 1.094 3.092 0 23.463 10.732 36.037 18.985 25.535 16.76 42.146 31.796 52.92 47.902 8.976 13.42 10.566 18.226 10.63 32.13.05 11.04-.083 11.795-3.218 18.166-4.173 8.481-10.584 15.604-17.368 19.297-7.534 4.1-18.648 4.57-27.582 1.164z" fill="#93247d"/><text y="262.366" x="458.069" style="line-height:125%" font-weight="400" font-size="124.705" font-family="sans-serif" letter-spacing="0" word-spacing="0"><tspan style="-inkscape-font-specification:Ubuntu" y="262.366" x="458.069" font-family="-apple-system,BlinkMacSystemFont,'Segoe UI',Ubuntu,Helvetica,Arial,sans-serif,'Apple Color Emoji','Segoe UI Emoji','Segoe UI Symbol'">SOS Romanian Rescues South West</tspan></text></svg>
