<?xml version="1.0" encoding="UTF-8" standalone="no"?>
<svg
   xmlns:dc="http://purl.org/dc/elements/1.1/"
   xmlns:cc="http://creativecommons.org/ns#"
   xmlns:rdf="http://www.w3.org/1999/02/22-rdf-syntax-ns#"
   xmlns:svg="http://www.w3.org/2000/svg"
   xmlns="http://www.w3.org/2000/svg"
   viewBox="0 0 2460 415"
   height="415"
   width="2460"
   version="1.1"
   id="svg4235">
  <metadata
     id="metadata4241">
    <rdf:RDF>
      <cc:Work
         rdf:about="">
        <dc:format>image/svg+xml</dc:format>
        <dc:type
           rdf:resource="http://purl.org/dc/dcmitype/StillImage" />
        <dc:title></dc:title>
      </cc:Work>
    </rdf:RDF>
  </metadata>
  <defs
     id="defs4239" />
  <g
     id="g4797">
    <path
       id="path4807"
       d="m 161,367.71511 c -2.55355,-2.55355 -2.64547,-8.10588 -0.17126,-10.34501 5.993,-5.42359 12.76456,4.62066 6.85681,10.1707 -2.86521,2.69172 -4.13503,2.72483 -6.68555,0.17431 z m 124,0 c -2.55355,-2.55355 -2.64547,-8.10588 -0.17126,-10.34501 5.993,-5.42359 12.76456,4.62066 6.85681,10.1707 -2.86521,2.69172 -4.13503,2.72483 -6.68555,0.17431 z M 180.65499,352.88637 C 179.74474,351.88056 179,349.41594 179,347.40942 c 0,-2.80971 0.58775,-4.03331 2.55724,-5.32377 2.42255,-1.58731 2.69907,-1.57015 5.25,0.32584 3.22135,2.39429 3.94692,6.50368 1.74237,9.86826 -1.90593,2.90881 -5.55726,3.18938 -7.89462,0.60662 z m 84,0 c -3.40669,-3.76435 -0.75087,-12.17126 3.84501,-12.17126 2.43172,0 5.5,3.78095 5.5,6.77749 0,6.11032 -5.71261,9.40753 -9.34501,5.39377 z m -111.09117,-9.29972 c -2.96056,-2.32877 -3.37218,-6.27244 -1.00712,-9.64903 3.1486,-4.49525 9.4433,-1.55224 9.4433,4.4151 0,5.72806 -4.36511,8.43624 -8.43618,5.23393 z m 140.47002,0.83265 c -6.65416,-3.31746 -2.42469,-14.98683 4.47258,-12.3401 2.43319,0.9337 3.98428,5.34505 2.92245,8.31155 -1.40283,3.91919 -4.37104,5.53617 -7.39503,4.02855 z"
       style="fill:#a29fa1" />
    <path
       id="path4805"
       d="m 276.07016,224.39971 c -14.38581,-3.12148 -25.88458,-11.08128 -30.79341,-21.31614 -2.15068,-4.48414 -2.79369,-7.49622 -3.13141,-14.66861 -0.38081,-8.08761 -0.0989,-10.01049 2.71198,-18.5 6.87022,-20.74948 19.44941,-42.37165 29.21392,-50.21539 8.58892,-6.89939 15.45773,-4.40911 30.86806,11.19118 11.08118,11.21778 19.07881,22.07669 25.90868,35.17795 6.08239,11.66741 8.25145,19.16478 8.34249,28.83589 0.0809,8.59102 -1.81049,13.36912 -7.41354,18.72874 -10.40066,9.94877 -36.35612,14.96515 -55.70677,10.76638 z"
       style="fill:#b2599a" />
    <path
       id="path4803"
       d="m 166.67187,414.02157 c -2.6125,-0.19411 -4.75,-0.72819 -4.75,-1.18684 0,-0.45866 -1.6875,-1.14192 -3.75,-1.51836 -14.06575,-2.56724 -32.01831,-17.26138 -39.74066,-32.52767 -6.2129,-12.28228 -8.94574,-31.19189 -6.28817,-43.51047 1.24158,-5.75511 1.41654,-5.99501 4.28662,-5.87786 1.64572,0.0672 4.78597,0.96778 6.97835,2.00134 l 3.98613,1.8792 0.0139,12.99866 c 0.0134,12.5484 0.12523,13.23377 3.22892,19.78626 13.47169,28.44133 50.43149,36.27951 73.6878,15.62721 10.49846,-9.32295 15.85055,-21.74299 15.3849,-35.70213 l -0.28779,-8.62623 -8.5,-2.8781 c -19.66089,-6.65716 -29.65327,-18.6533 -29.41141,-35.3092 0.20968,-14.43893 12.65416,-27.7113 30.91141,-32.96782 7.99051,-2.30058 23.00949,-2.30058 31,0 18.26325,5.25825 30.91103,18.76148 30.97371,33.06867 0.0731,16.67549 -9.89032,28.57743 -29.47371,35.20835 l -8.5,2.8781 -0.28776,8.62623 c -0.46565,13.95914 4.88644,26.37918 15.3849,35.70213 23.02114,20.44345 59.41732,13.08048 73.19184,-14.80676 3.69921,-7.48924 3.71113,-7.55467 3.74632,-20.5606 l 0.0353,-13.04745 3.9647,-1.87786 c 2.18058,-1.03282 5.31119,-1.93282 6.95691,-2 2.87008,-0.11715 3.04504,0.12275 4.28662,5.87786 1.88182,8.72278 0.91867,23.19603 -2.19752,33.02197 -6.35622,20.04244 -21.52445,35.86919 -39.96249,41.69745 -3.91535,1.23765 -7.40061,2.6435 -7.74501,3.12412 -0.85697,1.19589 -20.96673,1.11211 -21.74762,-0.0906 -0.3444,-0.53045 -2.29551,-1.27134 -4.33578,-1.64643 -2.04028,-0.37509 -7.44028,-2.54687 -12,-4.82618 -8.15337,-4.0757 -17.55465,-12.253 -25.04041,-21.78033 l -2.75,-3.5 -2.75,3.5 c -7.48576,9.52733 -16.88704,17.70463 -25.04041,21.78033 -4.55972,2.27931 -9.95972,4.45109 -12,4.82618 -2.04027,0.37509 -3.93459,0.99839 -4.20959,1.38511 -0.66009,0.92826 -11.25562,1.69711 -17.25,1.25172 z m 44.77988,-123.69138 c 6.27397,-2.62143 7.26141,-10.15313 1.63658,-12.48301 -5.92582,-2.45455 -12.57022,2.00655 -11.98798,8.04883 0.22841,2.37038 1.04548,3.70093 2.82152,4.59467 3.15855,1.58946 3.3515,1.58535 7.52988,-0.16049 z m 68.38369,-90.47647 c -6.81324,-2.14698 -12.34416,-9.64207 -13.53693,-18.34423 -0.50055,-3.65196 0.9094,-11.73126 2.04727,-11.73126 0.14785,0 1.67139,0.6997 3.38565,1.55488 5.38242,2.68511 10.54888,-1.79811 10.43912,-9.05857 l -0.068,-4.49631 3.87485,0 c 4.66741,0 9.91647,4.13261 13.21637,10.40532 4.80807,9.13958 1.408,24.55466 -6.48628,29.40713 -3.9507,2.42842 -9.3403,3.37596 -12.87208,2.26304 z m -118.41357,-1.93605 c -4.17547,-2.57917 -6.46304,-5.37023 -8.05119,-9.82324 -1.41643,-3.97155 -1.84775,-12.22681 -0.83595,-15.99956 0.50443,-1.88088 0.90794,-2.03647 2.9126,-1.12308 5.58313,2.54384 10.29185,-2.37134 8.19967,-8.55921 -1.27068,-3.75822 0.32956,-4.8433 6.39711,-4.33767 5.96594,0.49716 10.11272,3.50736 13.03226,9.4603 4.92089,10.03369 2.04629,24.3164 -5.99356,29.77963 -4.48019,3.04437 -11.28427,3.30627 -15.66094,0.60283 z M 27.804155,141.39765 c -5.70835,-2.03988 -10.49343,-5.37076 -14.88854,-10.36386 -4.03864,-4.58815 -9.9937401,-15.65082 -9.9937401,-18.56519 0,-0.83804 -0.49284,-1.68798 -1.09521,-1.88877 -1.40338,-0.4678 -1.32613,-16.161156 0.0819,-16.630488 0.55734,-0.185779 1.01334,-1.183399 1.01334,-2.216934 0,-3.535136 4.1093301,-12.865055 8.8800401,-20.16144 C 23.004975,54.436904 37.879695,40.573723 62.991225,23.862777 77.841505,13.98037 92.237155,6.035519 99.4219,3.756958 c 2.2,-0.697704 4.2779,-1.695969 4.61756,-2.218365 0.7848,-1.20703 14.87282,-1.341664 15.73688,-0.150392 0.35506,0.489515 2.81016,1.909847 5.45579,3.156293 12.79902,6.030058 25.78911,24.808119 37.98975,54.916771 2.77658,6.852045 2.83997,6.669735 -3.74886,10.78284 -2.41471,1.507396 -3.03189,1.586644 -3.40715,0.437487 -1.04475,-3.199255 -18.51918,-36.596517 -21.3596,-40.822575 -4.64552,-6.911735 -7.91458,-10.080788 -10.39891,-10.080788 -4.83817,0 -7.65476,6.812038 -14.88499,36 -9.06591,36.598426 -15.14866,49.473511 -30.923575,65.454551 -16.91978,17.14085 -36.90793,25.09156 -50.69464,20.16487 z m 377.396865,-0.97564 c -17.1064,-6.5196 -36.2867,-24.70624 -45.5011,-43.143781 -3.4715,-6.946424 -9.0366,-24.307277 -13.30286,-41.5 -7.28978,-29.377031 -10.02372,-36 -14.86068,-36 -4.46892,0 -10.33728,8.489336 -23.01414,33.292895 -4.55581,8.913908 -8.49013,16.838619 -8.74295,17.610468 -0.37643,1.149266 -0.9936,1.070054 -3.40854,-0.437487 -6.59716,-4.118304 -6.50572,-3.789116 -3.26575,-11.756946 11.88708,-29.233116 24.15478,-47.133792 36.54443,-53.32459 3.17484,-1.586387 6.06294,-3.284853 6.418,-3.774368 0.94156,-1.298119 15.21499,-1.028408 15.65639,0.295844 0.2006,0.601801 1.1266,1.094184 2.0577,1.094184 3.0922,0 23.4633,10.731442 36.0375,18.984423 25.5347,16.759551 42.1462,31.796203 52.9194,47.902235 8.9762,13.419642 10.5663,18.225714 10.6304,32.130913 0.051,11.0389 -0.083,11.79382 -3.2178,18.165 -4.1731,8.48118 -10.5845,15.60446 -17.3684,19.29671 -7.5337,4.10035 -18.6472,4.56956 -27.5816,1.1645 z"
       style="fill:#93247d" />
  </g>
  <text
     id="text4828"
     y="262.36606"
     x="458.06931"
     style="font-style:normal;font-weight:normal;font-size:124.7048111px;line-height:125%;font-family:sans-serif;letter-spacing:0px;word-spacing:0px;fill:#000000;fill-opacity:1;stroke:none;stroke-width:1px;stroke-linecap:butt;stroke-linejoin:miter;stroke-opacity:1"
     xml:space="preserve"><tspan
       style="font-style:normal;font-variant:normal;font-weight:normal;font-stretch:normal;font-family:-apple-system, BlinkMacSystemFont, 'Segoe UI', Helvetica, Arial, sans-serif, 'Apple Color Emoji', 'Segoe UI Emoji', 'Segoe UI Symbol';-inkscape-font-specification:Ubuntu"
       y="262.36606"
       x="458.06931"
       id="tspan4830">SOS Romanian Rescues South West</tspan></text>
</svg>
