<?xml version="1.0" encoding="iso-8859-1"?>
<!-- Generator: Adobe Illustrator 16.0.0, SVG Export Plug-In . SVG Version: 6.00 Build 0)  -->
<!DOCTYPE svg PUBLIC "-//W3C//DTD SVG 1.1//EN" "http://www.w3.org/Graphics/SVG/1.1/DTD/svg11.dtd">
<svg version="1.1" id="Capa_1" xmlns="http://www.w3.org/2000/svg" xmlns:xlink="http://www.w3.org/1999/xlink" x="0px" y="0px"
	 width="97.724px" height="97.724px" viewBox="0 0 97.724 97.724" style="enable-background:new 0 0 97.724 97.724;"
	 xml:space="preserve">
<g>
	<g>
		<polygon points="20.271,63.02 20.271,68.871 24.676,68.871 24.676,97.697 29.606,97.697 29.606,68.871 69.13,68.871 69.13,97.697 
			74.06,97.697 74.06,68.871 78.465,68.871 78.465,63.02 		"/>
		<path d="M48.163,46.117l-9.4-5.393H38.74c-0.729,0.784-1.479,1.513-2.229,2.218l-0.429,0.402
			c-1.332,1.256-2.807,2.256-4.908,2.424c-2.229,0.179-4.052-1.37-4.052-1.37s-1.985-1.545-1.982-4.664l-2.596-2.098
			c-0.871-0.699-2.143-0.561-2.84,0.309c-0.698,0.87-0.561,2.142,0.31,2.84l3.922,3.151v8.566c0,0.043-3.438,6.775-3.438,6.775
			c-0.516,0.99-0.131,2.207,0.858,2.723c0.298,0.156,0.616,0.23,0.931,0.23c0.729,0,1.433-0.396,1.792-1.088l3.477-6.68l3.889,6.754
			c0.373,0.646,1.053,1.014,1.752,1.014c0.341,0,0.687-0.088,1.005-0.271c0.967-0.558,1.299-1.793,0.742-2.759l-3.394-5.894h12.562
			v6.9c0,1.114,0.904,2.021,2.02,2.021s2.045-0.904,2.045-2.021L48.163,46.117z"/>
		<path d="M48.494,27.88c-0.334-0.247-1.987-1.047-2.706,1.691c-0.156,0.595-0.368,1.187-0.652,1.731
			c-1.039,1.994-2.356,3.818-3.617,5.677c-0.577,0.845-1.153,1.693-1.728,2.539l8.831,5.028c0,0,1.704-1.862,1.943-1.757
			c0.33,0.146,0.665,0.289,0.997,0.434c0.973,0.422,1.985,0.62,3.049,0.557c1.806-0.105,3.686-1.063,3.856-3.229
			c0.158-1.984-4.655-3.535-5.078-3.932c-1.246-1.176-1.667-2.553-3.067-3.551c-0.246-0.172-0.495-0.349-0.753-0.497
			c-0.156-0.087-0.206-0.188-0.188-0.358c0.06-0.578,0.118-1.158,0.164-1.737C49.629,29.437,49.327,28.492,48.494,27.88z"/>
		<path d="M50.492,0c-1.598,0.487-3.027,1.356-4.185,2.502h2.671C49.202,1.509,49.748,0.641,50.492,0z"/>
		<path d="M58.033,2.502h2.573c-1.12-1.109-2.498-1.959-4.036-2.454C57.289,0.685,57.815,1.533,58.033,2.502z"/>
		<path d="M53.507,8.162c-1.957,0-3.627-1.22-4.31-2.936h-4.843c-0.671,1.354-1.057,2.876-1.057,4.488
			c0,5.612,4.549,10.158,10.16,10.158c5.61,0,10.157-4.546,10.157-10.158c0-1.612-0.386-3.134-1.057-4.488h-4.742
			C57.132,6.942,55.464,8.162,53.507,8.162z"/>
		<path d="M53.507,6.133c1.442,0,2.617-1.175,2.617-2.618c0-1.441-1.175-2.616-2.617-2.616S50.89,2.074,50.89,3.515
			C50.889,4.959,52.063,6.133,53.507,6.133z"/>
		<path d="M53.566,93.064c-0.001,2.571,2.085,4.659,4.66,4.659c2.572,0,4.659-2.086,4.659-4.659l0.002-22.254h-9.319L53.566,93.064z
			"/>
		<path d="M43.583,70.811l0.002,22.254c0,2.573,2.087,4.659,4.66,4.659c2.577,0,4.663-2.088,4.662-4.659l-0.002-22.254H43.583z"/>
		<path d="M31.104,43.881c1.107,0,2.101-0.566,2.986-1.364c3.381-3.05,6.467-7.596,6.467-7.596c1.053-1.532,2.047-2.982,2.855-4.533
			c0.193-0.374,0.36-0.82,0.494-1.321c0.82-3.129,2.847-3.468,3.68-3.468c0.967,0,1.673,0.396,1.985,0.604l-0.016-0.048
			c0.04,0.027,0.099,0.063,0.124,0.081c1.018,0.745,1.645,1.816,1.828,3.086c0.012,0.073,0.013,0.152,0.021,0.228
			c0.014,0.133,0.029,0.264,0.035,0.4c0.007,0.222,0.002,0.449-0.018,0.681c-0.02,0.258-0.043,0.516-0.066,0.772
			c1.079,0.781,1.693,1.654,2.236,2.429c0.308,0.438,0.577,0.824,0.908,1.164c0.132,0.065,0.31,0.143,0.516,0.238
			c1.953,0.891,5.143,2.347,5.33,4.945c0.015,0.17,0.015,0.347-0.001,0.526c-0.057,0.711-0.244,1.371-0.543,1.963
			c-0.896,1.793-2.805,2.98-5.22,3.121c-1.297,0.08-2.608-0.148-3.859-0.671c-0.215,0.214-0.451,0.461-0.677,0.705l-0.014,14.385
			c0,0.237-0.03,0.468-0.07,0.692h12.803v-5.371c0.611-1.131,0.968-2.412,0.968-3.816V39.26c0,0,0.849,1.039,1.053,2.466
			c0.327,1.761,0.343,5.29-0.008,8.787c-0.218,2.167,1.364,4.101,3.532,4.315c0.133,0.015,0.266,0.021,0.396,0.021
			c2.002,0,3.716-1.519,3.92-3.551c1.774-17.744-8.786-27.55-16.762-30.838l-2.53,2.549l-2.454-2.576
			c-0.009,0.002-0.016,0.002-0.024,0.006c-1.428,0.341-6.86,3.153-9.055,4.587c-8.215,5.377-13.243,11.688-13.803,12.335
			c-1.424,1.647-1.242,4.138,0.405,5.562C29.274,43.566,30.191,43.881,31.104,43.881z"/>
	</g>
</g>
<g>
</g>
<g>
</g>
<g>
</g>
<g>
</g>
<g>
</g>
<g>
</g>
<g>
</g>
<g>
</g>
<g>
</g>
<g>
</g>
<g>
</g>
<g>
</g>
<g>
</g>
<g>
</g>
<g>
</g>
</svg>
