<?xml version="1.0" encoding="iso-8859-1"?>
<!-- Generator: Adobe Illustrator 16.0.0, SVG Export Plug-In . SVG Version: 6.00 Build 0)  -->
<!DOCTYPE svg PUBLIC "-//W3C//DTD SVG 1.1//EN" "http://www.w3.org/Graphics/SVG/1.1/DTD/svg11.dtd">
<svg version="1.1" id="Capa_1" xmlns="http://www.w3.org/2000/svg" xmlns:xlink="http://www.w3.org/1999/xlink" x="0px" y="0px"
	 width="97.359px" height="97.359px" viewBox="0 0 97.359 97.359" style="enable-background:new 0 0 97.359 97.359;"
	 xml:space="preserve">
<g>
	<g>
		<circle cx="47.791" cy="20.607" r="10.287"/>
		<path d="M56.396,57.163l6.472-2.632l-4.144-6.747c-0.58,1.209-1.283,2.323-2.141,3.317c-2.666,3.096-6.493,4.891-11.072,5.193
			c-0.09,0.004-0.18,0.008-0.269,0.008c-2.086,0-3.842-1.619-3.98-3.729c-0.146-2.201,1.521-4.104,3.722-4.25
			c1.67-0.109,3.965-0.642,5.548-2.434c5.555-6.29-1.053-11.504,4.725-17.389c0,0,0.754-0.843,1.75-1.423
			c0.952-0.556,2.135-0.98,2.135-0.98l0.025-0.013c3.395-1.087,8.011-0.613,10.227,2.99l11.884,19.352
			c0.551,0.899,1.192,2.391,1.108,4.189l-1.106,17.941l10.419-1.422c2.727-0.367,5.243,1.539,5.615,4.268
			c0.373,2.729-1.538,5.242-4.267,5.613l-16.445,2.244c-0.226,0.031-0.45,0.047-0.674,0.047c-1.25,0-2.465-0.471-3.394-1.332
			c-1.095-1.018-1.676-2.471-1.584-3.961l0.878-14.233l-8.41,3.294l0.581,12.766c0.126,2.752-2.003,5.082-4.754,5.207
			c-0.077,0.004-0.153,0.006-0.229,0.006c-2.65,0-4.856-2.086-4.979-4.761l-0.744-16.282C53.196,59.901,54.439,57.958,56.396,57.163
			z"/>
		<path d="M23.674,61.212l13.309,5.547l5.52-1.598c1.245-0.359,2.553,0.357,2.913,1.605c0.362,1.248-0.357,2.553-1.605,2.914
			l-5.765,1.67l-3.562,7.715c-0.267,0.824-0.972,1.473-1.886,1.607l-2.79,0.414l2.968,1.5c1.16,0.586,1.625,2,1.039,3.161
			c-0.414,0.818-1.243,1.291-2.102,1.291c-0.356,0-0.72-0.082-1.06-0.253l-9.578-4.842c-0.915-0.463-1.425-1.465-1.262-2.477
			c0.164-1.012,0.964-1.802,1.978-1.951l1.798-0.266l-9.131-3.75l0.012,10.362c0.001,1.299-1.052,2.354-2.351,2.354
			c-0.001,0-0.001,0-0.001,0c-1.299,0-2.352-1.052-2.354-2.351L9.749,70.755c-0.002-0.074-0.006-0.131-0.008-0.215l0.002-7.749
			L23.674,61.212z"/>
		<path d="M0.225,51.087c0.788-2.414,7.213-1.877,7.904-2.137c2.046-0.772,3.213-2.188,5.351-2.673
			c0.373-0.084,0.75-0.171,1.128-0.215c0.227-0.027,0.336-0.122,0.399-0.332c0.213-0.709,0.429-1.42,0.657-2.126
			c0.413-1.262,1.229-2.226,2.512-2.539c0.514-0.125,2.851-0.257,2.354,3.319c-0.106,0.775-0.148,1.576-0.083,2.355
			c0.245,2.857,0.901,5.648,1.476,8.455c0.262,1.279,0.523,2.559,0.784,3.833L9.849,60.617c0,0-1.089-3.025-1.422-3.021
			c-0.461,0.01-0.925,0.017-1.387,0.022c-1.352,0.021-2.641-0.247-3.859-0.841C1.106,55.769-0.635,53.716,0.225,51.087z"/>
		<path d="M40.864,81.052c0.023-0.022,0.041-0.049,0.065-0.07c0.603-0.521,1.423-0.618,2.11-0.327
			c0.019-0.022,0.029-0.05,0.048-0.069c0.096-0.115,0.16-0.222,0.27-0.309c0.104-0.088,0.2-0.163,0.286-0.227
			c0.162-0.137,0.364-0.166,0.461-0.209c0.104-0.031,0.166-0.052,0.166-0.052s-0.023,0.062-0.063,0.169
			c-0.025,0.113-0.104,0.227-0.091,0.407c0.003,0.081,0.007,0.167,0.012,0.26c0.001,0.08,0.045,0.19,0.068,0.278
			c0.042,0.171,0.159,0.38,0.246,0.547c0.089,0.145,0.17,0.268,0.257,0.395c0.041,0.012,0.083,0.018,0.122,0.031
			c0.017,0.006,0.039,0.012,0.06,0.02c0.164,0.029,1.062,0.369,1.314,0.494c0.257,0.133,0.523,0.267,0.886,0.58
			c0.177,0.174,0.439,0.39,0.633,0.946c0.091,0.274,0.11,0.655,0.019,0.979c-0.042,0.145-0.11,0.305-0.178,0.414
			c-0.063,0.102-0.146,0.216-0.213,0.287c-0.292,0.308-0.49,0.377-0.682,0.474c-0.177,0.071-0.333,0.116-0.472,0.146
			c-0.28,0.062-0.519,0.082-0.747,0.092c-5.415,0.207-5.633-0.547-6.252-1.189c-0.92-0.959-0.89-2.482,0.069-3.402
			C39.708,81.284,40.284,81.066,40.864,81.052z"/>
		<path d="M41.848,77.267c0.261-0.09,0.543,0.056,0.63,0.315c0.106,0.321,0.152,0.519,0.152,0.519
			c0.061,0.271-0.106,0.537-0.374,0.599c-0.038,0.009-0.076,0.013-0.112,0.013c-0.228,0-0.432-0.154-0.486-0.386
			c-0.002-0.011-0.041-0.172-0.126-0.429C41.444,77.636,41.587,77.353,41.848,77.267z"/>
		<path d="M38.485,72.826c0.331,0.145,0.649,0.32,0.948,0.521c0.229,0.153,0.289,0.463,0.136,0.692
			c-0.096,0.142-0.254,0.22-0.415,0.22c-0.096,0-0.191-0.027-0.277-0.086c-0.25-0.168-0.518-0.313-0.794-0.438
			c-0.252-0.111-0.365-0.405-0.255-0.657C37.938,72.829,38.233,72.714,38.485,72.826z"/>
		<path d="M41.172,76.435c-0.169,0-0.334-0.086-0.428-0.24c-0.152-0.254-0.33-0.514-0.531-0.77
			c-0.172-0.215-0.135-0.527,0.082-0.697c0.216-0.174,0.528-0.135,0.699,0.08c0.214,0.271,0.417,0.563,0.604,0.871
			c0.143,0.234,0.066,0.543-0.168,0.685C41.349,76.411,41.26,76.435,41.172,76.435z"/>
	</g>
</g>
<g>
</g>
<g>
</g>
<g>
</g>
<g>
</g>
<g>
</g>
<g>
</g>
<g>
</g>
<g>
</g>
<g>
</g>
<g>
</g>
<g>
</g>
<g>
</g>
<g>
</g>
<g>
</g>
<g>
</g>
</svg>
