<?xml version="1.0" encoding="iso-8859-1"?>
<!-- Generator: Adobe Illustrator 16.0.0, SVG Export Plug-In . SVG Version: 6.00 Build 0)  -->
<!DOCTYPE svg PUBLIC "-//W3C//DTD SVG 1.1//EN" "http://www.w3.org/Graphics/SVG/1.1/DTD/svg11.dtd">
<svg version="1.1" id="Capa_1" xmlns="http://www.w3.org/2000/svg" xmlns:xlink="http://www.w3.org/1999/xlink" x="0px" y="0px"
	 width="97.446px" height="97.446px" viewBox="0 0 97.446 97.446" style="enable-background:new 0 0 97.446 97.446;"
	 xml:space="preserve">
<g>
	<g>
		<circle cx="13.597" cy="13.369" r="10.313"/>
		<path d="M74.736,73.021l-12.793-0.365l-4.136-3.323c-0.887-0.711-2.184-0.571-2.895,0.315c-0.714,0.888-0.57,2.183,0.314,2.895
			l4.226,3.395l-1.097,8.021l-6.604,6.976c-0.781,0.826-0.744,2.129,0.079,2.91c0.399,0.377,0.908,0.563,1.416,0.563
			c0.546,0,1.091-0.216,1.496-0.644l5.142-5.431l-2.31,4.864c-0.487,1.027-0.052,2.256,0.978,2.742
			c0.285,0.137,0.586,0.199,0.881,0.199c0.771,0,1.51-0.434,1.861-1.176l4.393-9.255l10.061,0.078l-3.152,7.496
			c-0.441,1.047,0.051,2.255,1.1,2.696c0.26,0.109,0.529,0.162,0.797,0.162c0.805,0,1.568-0.475,1.898-1.262l4.144-9.847
			c0.006-0.015,0.008-0.028,0.015-0.043l2.832-6.114L74.736,73.021z"/>
		<path d="M89.612,68.574c-1.08-1.253-1.307-2.689-2.564-3.764c-0.221-0.186-0.443-0.375-0.683-0.535
			c-0.144-0.096-0.181-0.203-0.138-0.377c0.142-0.598,0.283-1.195,0.41-1.795c0.229-1.073,0.064-2.06-0.683-2.719
			c-0.301-0.265-1.839-1.141-2.946,1.676c-0.242,0.611-0.535,1.219-0.896,1.772c-1.323,2.038-2.896,3.888-4.424,5.774
			c-0.696,0.861-1.394,1.721-2.086,2.578l8.121,5.459c0,0,1.965-1.879,2.188-1.764c0.312,0.162,0.625,0.319,0.935,0.479
			c0.912,0.466,1.898,0.699,2.973,0.664c1.818-0.059,3.836-0.996,4.312-3.233C94.574,70.739,89.978,68.998,89.612,68.574z"/>
		<path d="M72.444,71.711l1.166-1.545c-0.143-0.105-13.361-10.082-21.33-16.456c0.913-1.59,0.645-3.653-0.768-4.942
			c-0.121-0.112-12.256-11.24-21.656-22.413c-0.055-0.064-0.12-0.113-0.179-0.173c-1.653-2.047-4.123-3.422-6.956-3.587
			c-5.354-0.313-9.913,3.763-10.224,9.098c-0.822,14.095,1.869,25.946,1.985,26.444c0.794,3.438,3.331,6.012,6.46,7.021
			l10.97,28.996c0.771,2.038,2.709,3.293,4.768,3.293c0.599,0,1.208-0.106,1.802-0.331c2.632-0.996,3.959-3.938,2.962-6.568
			L30.889,62.643c2.172-2.271,3.203-5.553,2.457-8.846c-0.018-0.074-1.27-5.695-1.58-13.316
			c7.347,7.781,13.968,13.853,14.343,14.195c0.769,0.703,1.736,1.049,2.701,1.049c0.739,0,1.469-0.221,2.113-0.621
			C58.902,61.493,72.302,71.604,72.444,71.711z"/>
		<polygon points="27.117,6.109 28.532,10.393 35.804,11.128 28.782,14.265 32.691,19.349 26.836,16.59 26.147,18.053
			38.047,23.661 31.315,14.906 42.002,10.129 29.738,8.89 26.8,0 24.887,8.728 26.466,9.075 		"/>
	</g>
</g>
<g>
</g>
<g>
</g>
<g>
</g>
<g>
</g>
<g>
</g>
<g>
</g>
<g>
</g>
<g>
</g>
<g>
</g>
<g>
</g>
<g>
</g>
<g>
</g>
<g>
</g>
<g>
</g>
<g>
</g>
</svg>
