<?xml version="1.0" encoding="iso-8859-1"?>
<!-- Generator: Adobe Illustrator 16.0.0, SVG Export Plug-In . SVG Version: 6.00 Build 0)  -->
<!DOCTYPE svg PUBLIC "-//W3C//DTD SVG 1.1//EN" "http://www.w3.org/Graphics/SVG/1.1/DTD/svg11.dtd">
<svg version="1.1" id="Capa_1" xmlns="http://www.w3.org/2000/svg" xmlns:xlink="http://www.w3.org/1999/xlink" x="0px" y="0px"
	 width="97.938px" height="97.937px" viewBox="0 0 97.938 97.937" style="enable-background:new 0 0 97.938 97.937;"
	 xml:space="preserve">
<g>
	<g>
		<circle cx="23.436" cy="20.768" r="8.312"/>
		<path d="M68.207,64.098l-3.756-3.019c-0.805-0.646-1.981-0.52-2.628,0.287c-0.647,0.806-0.52,1.982,0.286,2.629l3.837,3.082
			l-0.996,7.285l-5.997,6.334c-0.71,0.75-0.677,1.934,0.071,2.644c0.363,0.342,0.825,0.512,1.286,0.512
			c0.496,0,0.991-0.196,1.358-0.585l4.669-4.931l-2.098,4.417c-0.442,0.933-0.046,2.049,0.889,2.49
			c0.259,0.125,0.53,0.182,0.8,0.182c0.7,0,1.371-0.395,1.689-1.068l3.988-8.404l9.137,0.07l-2.862,6.809
			c-0.401,0.951,0.046,2.048,0.999,2.447c0.234,0.101,0.48,0.146,0.724,0.146c0.73,0,1.424-0.43,1.724-1.145l3.764-8.943
			c0.006-0.014,0.008-0.026,0.013-0.04l2.572-5.552l-7.851-5.666L68.207,64.098z"/>
		<path d="M93.805,60.546c-0.981-1.139-1.187-2.443-2.329-3.417c-0.2-0.169-0.403-0.34-0.62-0.486
			c-0.13-0.087-0.164-0.184-0.125-0.343c0.129-0.543,0.257-1.085,0.373-1.63c0.209-0.976,0.059-1.871-0.619-2.47
			c-0.272-0.24-1.67-1.035-2.677,1.521c-0.22,0.555-0.486,1.105-0.813,1.61c-1.201,1.851-2.632,3.53-4.017,5.243
			c-0.634,0.783-1.266,1.563-1.896,2.343l7.374,4.958c0,0,1.786-1.706,1.989-1.602c0.281,0.146,0.567,0.289,0.849,0.435
			c0.828,0.422,1.725,0.634,2.698,0.602c1.651-0.052,3.484-0.903,3.918-2.936C98.311,62.512,94.137,60.932,93.805,60.546z"/>
		<polygon points="44.739,58.299 45.321,58.07 44.89,56.978 46.268,58.046 48.757,56.711 47.184,59.232 49.532,60.018 
			47.062,60.398 47.156,61.014 52.18,60.244 48.134,58.891 50.527,55.053 46.328,57.304 43.47,55.089 		"/>
		<polygon points="10.872,19.982 10.822,24.928 13.271,20.891 12.539,20.447 11.707,21.821 11.733,19.435 8.223,17.827 
			12.269,17.458 11.183,14.249 13.639,16.626 14.233,16.014 9.24,11.177 11.111,16.704 4.951,17.267 		"/>
		<path d="M67.739,56.064c3.239,1.127,8.884,4.773,11.614,7.504l1.284-1.283c-2.936-2.936-8.798-6.717-12.278-7.926
			c-9.543-3.615-13.684,3.685-17.34,10.121c-1.257,2.211-2.484,4.361-3.874,6.088l-2.405-3.119c1.555-0.742,2.82-1.613,3.271-2.564
			c0.292-0.618,0.261-1.268-0.088-1.831c-0.297-0.478-0.92-1.048-2.203-1.048c-1.144,0-2.666,0.492-4.188,1.279l-0.533-0.691
			l-1.622-4.4c3.496-2.187,7.37-4.705,5.341-11.325c1.236-0.975,1.625-2.716,0.814-4.12c-3.523-6.121-8.48-12.86-15.76-15.393
			c-0.608,0.605-1.303,1.129-2.077,1.551c-1.338,0.729-2.848,1.115-4.363,1.115l0,0c-2.27,0-4.4-0.854-6.047-2.308
			c-0.653,0.421-1.146,0.878-1.146,0.878c-1.082,0.986-1.792,2.303-2.438,3.885c-0.603,1.267-1.084,2.403-1.509,3.415
			c-1.845,4.398-2.609,6.219-10.289,9.683c-1.625,0.732-2.348,2.643-1.615,4.268c0.671,1.487,2.332,2.22,3.854,1.769
			c0.14-0.041,0.278-0.092,0.414-0.153c7.501-3.382,10.189-6.149,12.114-9.84l6.23,11.438c0.248,0.455,0.542,0.847,0.867,1.192
			l-3.39,11.955c-0.114,0.4-0.166,0.815-0.155,1.232l0.417,15.329c0.062,2.269,1.95,4.056,4.217,3.994
			c0.366-0.01,0.721-0.067,1.056-0.167c1.741-0.516,2.989-2.148,2.938-4.049l-0.4-14.702l2.489-8.78l1.33,3.606
			c-0.159,0.405-0.291,0.834-0.388,1.293c-0.447,2.202-0.189,3.84,0.769,4.864c0.612,0.656,1.478,1.008,2.554,1.088l-0.073,0.173
			l0.154-0.021c-0.374,1.605-0.177,3.074,0.599,4.162c0.634,0.891,1.923,1.898,4.494,1.898c0.211,0,0.436-0.01,0.663-0.024
			l2.436,3.157c1.066,1.383,2.839,1.898,4.418,1.432c0.474-0.141,0.928-0.367,1.343-0.687c1.794-1.386,2.128-3.964,0.742-5.761
			l-1.698-2.203c1.622-1.926,2.982-4.309,4.318-6.66C56.216,59.009,59.631,52.998,67.739,56.064z M45.719,63.82
			c0.339,0,0.586,0.071,0.674,0.215c-0.011,0.453-1.157,1.195-2.795,1.93l-0.939-1.217C43.805,64.183,44.911,63.82,45.719,63.82z
			 M30.225,34.614c3.351,1.979,6.425,5.641,9.713,11.351c0.649,1.127,1.873,1.708,3.088,1.598c1.469,5.008-1.006,6.821-4.294,8.885
			l-2.147-5.825c0.568-1.559,0.58-3.271-0.289-4.87L30.225,34.614z M33.502,66.004l0.007,0.019c0.144,0.392,0.347,0.758,0.601,1.088
			l0.713,0.924c-0.331-0.082-0.628-0.221-0.846-0.455C33.667,67.25,33.52,66.701,33.502,66.004z M37.361,73.169
			c-0.409-0.573-0.53-1.396-0.379-2.333l2.642,3.426C38.732,74.165,37.861,73.873,37.361,73.169z"/>
	</g>
</g>
<g>
</g>
<g>
</g>
<g>
</g>
<g>
</g>
<g>
</g>
<g>
</g>
<g>
</g>
<g>
</g>
<g>
</g>
<g>
</g>
<g>
</g>
<g>
</g>
<g>
</g>
<g>
</g>
<g>
</g>
</svg>
