<?xml version="1.0" encoding="iso-8859-1"?>
<!-- Generator: Adobe Illustrator 16.0.0, SVG Export Plug-In . SVG Version: 6.00 Build 0)  -->
<!DOCTYPE svg PUBLIC "-//W3C//DTD SVG 1.1//EN" "http://www.w3.org/Graphics/SVG/1.1/DTD/svg11.dtd">
<svg version="1.1" id="Capa_1" xmlns="http://www.w3.org/2000/svg" xmlns:xlink="http://www.w3.org/1999/xlink" x="0px" y="0px"
	 width="98.101px" height="98.102px" viewBox="0 0 98.101 98.102" style="enable-background:new 0 0 98.101 98.102;"
	 xml:space="preserve">
<g>
	<g>
		<path d="M29.355,67.262l-13.863,5.779l-5.749-1.664c-1.298-0.375-2.659,0.373-3.035,1.672c-0.377,1.301,0.373,2.66,1.672,3.035
			l6.005,1.739l3.71,8.035c0.278,0.858,1.012,1.534,1.965,1.677l2.905,0.43l-3.092,1.563c-1.208,0.608-1.692,2.083-1.082,3.292
			c0.432,0.854,1.294,1.346,2.189,1.346c0.371,0,0.749-0.086,1.103-0.265l9.977-5.043c0.953-0.481,1.484-1.522,1.314-2.578
			c-0.171-1.054-1.004-1.876-2.061-2.032l-1.872-0.275l9.51-3.907L38.94,90.859c-0.001,1.354,1.094,2.451,2.448,2.453
			c0.001,0,0.001,0,0.002,0c1.353,0,2.449-1.096,2.451-2.447l0.014-13.658c0.002-0.076,0.006-0.137,0.008-0.224l-0.002-8.072
			L29.355,67.262z"/>
		<path d="M45.971,54.491c-2.139-0.808-3.359-2.288-5.594-2.795c-0.391-0.087-0.784-0.179-1.18-0.226
			c-0.237-0.027-0.351-0.127-0.417-0.346c-0.223-0.742-0.449-1.486-0.688-2.223c-0.432-1.32-1.284-2.329-2.625-2.656
			c-0.538-0.131-2.98-0.269-2.462,3.471c0.113,0.812,0.156,1.648,0.086,2.463c-0.255,2.988-0.942,5.908-1.542,8.842
			c-0.274,1.337-0.547,2.674-0.82,4.007l13.444,1.657c0,0,1.139-3.162,1.487-3.156c0.483,0.012,0.968,0.018,1.449,0.023
			c1.414,0.021,2.76-0.258,4.036-0.881c2.167-1.053,3.987-3.197,3.089-5.947C53.411,54.2,46.694,54.764,45.971,54.491z"/>
		<path d="M72.825,20.885c5.703-1.222,9.334-6.836,8.113-12.537c-1.222-5.699-6.834-9.333-12.535-8.112
			C62.7,1.459,59.069,7.069,60.29,12.773C61.512,18.473,67.125,22.108,72.825,20.885z"/>
		<path d="M91.327,49.698l-4.881-22.789c-0.909-4.244-5.215-6.284-8.87-6.391l-0.03,0.002c0,0-1.289,0.007-2.4,0.22
			c-1.162,0.223-2.181,0.782-2.181,0.782c-1.428,0.691-2.824,1.775-3.869,3.128c-0.063,0.068-2.732,3.666-6.167,3.841
			c-3.423,0.174-6.928-2.745-7.97-3.849c-1.105-1.198-2.758-1.573-4.219-1.123L38.754,1.09c-0.264-0.494-0.88-0.68-1.374-0.416
			c-0.495,0.264-0.681,0.879-0.417,1.374L49.01,24.59c-1.497,1.551-1.555,4.012-0.073,5.614c0.352,0.382,2.285,2.396,5.253,4.081
			l1.617,3.024c0.182,0.342,0.533,0.536,0.896,0.536c0.162,0,0.325-0.038,0.478-0.12c0.495-0.264,0.681-0.879,0.417-1.374
			l-0.347-0.652c1.645,0.595,3.472,0.994,5.435,0.994c0.161,0,0.323-0.003,0.485-0.008c1.489-0.05,3.318-0.362,5.289-1.236
			l3.921,18.309c0.596,2.78,2.549,4.563,4.858,5.482l0.021,33.275c0.001,3.086,2.503,5.586,5.589,5.586c0.001,0,0.002,0,0.003,0
			c3.087-0.002,5.588-2.506,5.586-5.592l-0.021-35.168C90.618,55.463,91.979,52.739,91.327,49.698z"/>
	</g>
</g>
<g>
</g>
<g>
</g>
<g>
</g>
<g>
</g>
<g>
</g>
<g>
</g>
<g>
</g>
<g>
</g>
<g>
</g>
<g>
</g>
<g>
</g>
<g>
</g>
<g>
</g>
<g>
</g>
<g>
</g>
</svg>
