<?xml version="1.0" encoding="iso-8859-1"?>
<!-- Generator: Adobe Illustrator 16.0.0, SVG Export Plug-In . SVG Version: 6.00 Build 0)  -->
<!DOCTYPE svg PUBLIC "-//W3C//DTD SVG 1.1//EN" "http://www.w3.org/Graphics/SVG/1.1/DTD/svg11.dtd">
<svg version="1.1" id="Capa_1" xmlns="http://www.w3.org/2000/svg" xmlns:xlink="http://www.w3.org/1999/xlink" x="0px" y="0px"
	 width="99.388px" height="99.388px" viewBox="0 0 99.388 99.388" style="enable-background:new 0 0 99.388 99.388;"
	 xml:space="preserve">
<g>
	<g>
		<circle cx="70.244" cy="21.392" r="10.805"/>
		<path d="M55.542,57.549c0-1.86-1.511-3.372-3.372-3.372h-6.313l-1.868-9.607l-3.757,0.737c-0.223,0.021-0.437,0.062-0.645,0.128
			l-2.953,0.579c-0.176-0.853-0.667-1.586-1.334-2.1l8.608-1.606c0,0-0.01-3.106,0.294-3.209c0.421-0.146,0.844-0.294,1.266-0.438
			c1.232-0.427,2.314-1.094,3.224-2.036c1.549-1.6,2.453-4.036,0.805-6.141c-1.512-1.931-7.165,0.678-7.879,0.67
			c-2.111-0.026-3.637-0.924-5.738-0.659c-0.366,0.046-0.737,0.092-1.095,0.175c-0.214,0.05-0.346,0.001-0.471-0.168
			c-0.429-0.575-0.858-1.147-1.299-1.712c-0.791-1.011-1.85-1.616-3.116-1.476c-0.509,0.055-2.673,0.707-1.042,3.788
			c0.354,0.669,0.656,1.382,0.853,2.111l0.479,2.72c-0.294-0.068-0.597-0.114-0.912-0.114c-2.196,0-3.982,1.786-3.982,3.982
			c0,2.195,1.786,3.981,3.982,3.981c0.805,0,1.552-0.243,2.18-0.656l0.076,0.433c-1.166,0.589-1.975,1.786-1.975,3.18
			c0,0.637,0.181,1.228,0.474,1.745l-0.665,0.976c-0.409-0.406-0.972-0.659-1.593-0.659c-1.246,0-2.26,1.015-2.26,2.263
			c0,0.922,0.558,1.717,1.354,2.065l-0.714,1.049H3.373C1.51,54.178,0,55.689,0,57.55s1.51,3.372,3.373,3.372h0.041
			c-0.476,1.14-0.74,2.388-0.74,3.696v9.346c0,5.312,4.323,9.637,9.635,9.637h30.925c5.313,0,9.635-4.324,9.635-9.637v-9.346
			c0-1.309-0.264-2.557-0.74-3.696h0.041C54.031,60.922,55.542,59.412,55.542,57.549z M27.775,51.81
			c-0.412,0-0.748-0.336-0.748-0.748s0.335-0.748,0.748-0.748s0.748,0.335,0.748,0.748S28.187,51.81,27.775,51.81z M29.277,42.271
			c-1.362,0-2.47-1.108-2.47-2.47s1.108-2.471,2.47-2.471c1.361,0,2.469,1.108,2.469,2.471
			C31.746,41.163,30.638,42.271,29.277,42.271z M33.132,48.8c-1.137,0-2.063-0.924-2.063-2.062c0-1.137,0.925-2.063,2.063-2.063
			s2.063,0.926,2.063,2.063C35.195,47.877,34.27,48.8,33.132,48.8z M40.539,50.305c-0.969,0-1.758-0.788-1.758-1.758
			c0-0.971,0.789-1.759,1.758-1.759c0.97,0,1.758,0.788,1.758,1.759C42.298,49.518,41.509,50.305,40.539,50.305z"/>
		<path d="M17.137,43.394c1.981,0,3.593-1.61,3.593-3.592s-1.612-3.593-3.593-3.593s-3.593,1.61-3.593,3.593
			C13.544,41.783,15.156,43.394,17.137,43.394z M17.137,37.72c1.146,0,2.08,0.934,2.08,2.081c0,1.146-0.934,2.08-2.08,2.08
			c-1.147,0-2.081-0.934-2.081-2.08C15.057,38.654,15.99,37.72,17.137,37.72z"/>
		<path d="M96.215,78.81l-10.059-4.26l4.67-8.193c0.951-1.621,0.834-3.895,0.619-4.908l-4.998-23.322
			c-0.932-4.345-5.338-6.431-9.078-6.54l-0.031,0.004c0,0-1.318,0.007-2.456,0.223c-1.188,0.228-2.231,0.798-2.231,0.798
			c-2.758,1.339-5.396,4.103-5.718,7.458c-0.223,1.484,0.013,5.938-2.407,6.346c-2.166,0.365-7.095-0.399-10.563-1.446
			c-2.222-0.671-4.559,0.587-5.228,2.805c-0.669,2.218,0.587,4.56,2.805,5.229c4.117,1.24,7.794,2.229,11.085,2.229
			c2.327,0,4.461-0.496,6.418-1.744c0.126-0.08,0.237-0.182,0.358-0.267l1.256,5.866l-6.098-0.837
			c-1.869-0.253-3.744,0.424-5.012,1.819c-1.268,1.396-1.768,3.328-1.333,5.164l4.412,18.674c0.623,2.634,2.97,4.406,5.563,4.406
			c0.436,0,0.877-0.052,1.319-0.154c3.075-0.727,4.979-3.809,4.252-6.885l-2.495-10.557L76,71.369l-1.776,3.115
			c-0.735,1.291-0.884,2.834-0.407,4.242c0.476,1.406,1.53,2.543,2.897,3.121l15.442,6.54c0.664,0.281,1.351,0.413,2.026,0.413
			c2.026,0,3.951-1.189,4.792-3.174C100.095,82.982,98.859,79.93,96.215,78.81z"/>
	</g>
</g>
<g>
</g>
<g>
</g>
<g>
</g>
<g>
</g>
<g>
</g>
<g>
</g>
<g>
</g>
<g>
</g>
<g>
</g>
<g>
</g>
<g>
</g>
<g>
</g>
<g>
</g>
<g>
</g>
<g>
</g>
</svg>
