<?xml version="1.0" encoding="iso-8859-1"?>
<!-- Generator: Adobe Illustrator 16.0.0, SVG Export Plug-In . SVG Version: 6.00 Build 0)  -->
<!DOCTYPE svg PUBLIC "-//W3C//DTD SVG 1.1//EN" "http://www.w3.org/Graphics/SVG/1.1/DTD/svg11.dtd">
<svg version="1.1" id="Capa_1" xmlns="http://www.w3.org/2000/svg" xmlns:xlink="http://www.w3.org/1999/xlink" x="0px" y="0px"
	 width="95.459px" height="95.459px" viewBox="0 0 95.459 95.459" style="enable-background:new 0 0 95.459 95.459;"
	 xml:space="preserve">
<g>
	<g>
		<path d="M91.807,50.63c2.298-2.624,3.398-6.301,1.545-9.527l-11.5-20.016c-2.156-3.879-6.821-4.348-10.301-3.342l-0.028,0.011
			c0,0-1.214,0.397-2.198,0.932c-1.027,0.562-1.818,1.397-1.818,1.397c-2.147,2.048-3.762,5.377-3.065,8.565
			c0.008,0.161,0.006,0.321,0.034,0.485c1.842,10.771,2.125,12.425-9.152,17.822c-1.463,0.7-2.301,2.163-2.295,3.684
			c-1.409,0.823-2.93,1.891-4.368,3.051c-2.588,2.092-4.936,4.506-5.932,6.314c-1.07-1.747-6.11-1.143-6.684-1.334
			c-1.769-0.589-2.812-1.756-4.65-2.1c-0.321-0.059-0.645-0.12-0.969-0.146c-0.193-0.015-0.291-0.092-0.351-0.268
			c-0.205-0.598-0.412-1.196-0.631-1.791c-0.394-1.062-1.121-1.858-2.224-2.081c-0.443-0.091-2.439-0.124-1.897,2.905
			c0.118,0.66,0.18,1.342,0.149,2.008c-0.112,2.443-0.58,4.845-0.976,7.255c-0.181,1.101-0.362,2.196-0.541,3.293l11.012,0.925
			c0,0,0.828-2.615,1.112-2.621c0.394-0.008,0.789-0.02,1.183-0.027c1.153-0.027,2.242-0.297,3.262-0.844
			c1.083-0.582,2.042-1.504,2.409-2.654c1.631,0.504,5.634-1.776,9.142-4.607c1.367-1.105,2.665-2.3,3.737-3.449
			c0.408,0.133,0.834,0.211,1.269,0.211c0.589,0,1.185-0.127,1.75-0.398c7.81-3.737,11.796-7.065,13.529-11.193l4.354,7.577
			c0.971,1.69,2.41,2.733,4.02,3.272l-0.004,34.955c0.002,3.057,2.505,5.532,5.562,5.532h0.002c3.059-0.002,5.535-2.481,5.533-5.54
			C91.824,88.887,91.748,50.697,91.807,50.63z"/>
		<circle cx="61.973" cy="10.458" r="10.458"/>
		<path d="M46.293,76.331c-4.233-0.165-7.787-1.541-9.379-2.261l-1.685-3.637l-11.746-1.021l-13.429,6.224l-7.413,0.778
			c-0.902,0.095-1.556,0.901-1.46,1.804c0.088,0.842,0.8,1.469,1.629,1.469c0.058,0,0.116-0.002,0.174-0.008l7.139-0.75l3.398,7.334
			l2.619,7.705c0.311,0.914,1.164,1.49,2.079,1.49c0.234,0,0.472-0.038,0.707-0.118c1.147-0.39,1.763-1.637,1.372-2.786
			l-1.245-3.664l7.238,6.055c0.412,0.345,0.911,0.513,1.408,0.513c0.627,0,1.251-0.269,1.685-0.787
			c0.778-0.931,0.655-2.315-0.275-3.093l-6.643-5.557c4.023-1.539,9.139-3.965,13.619-7.524c2.181,0.89,5.792,2.058,10.036,2.224
			c0.029,0,0.058,0,0.087,0c1.173,0,2.146-0.928,2.193-2.109C48.448,77.398,47.505,76.378,46.293,76.331z"/>
	</g>
</g>
<g>
</g>
<g>
</g>
<g>
</g>
<g>
</g>
<g>
</g>
<g>
</g>
<g>
</g>
<g>
</g>
<g>
</g>
<g>
</g>
<g>
</g>
<g>
</g>
<g>
</g>
<g>
</g>
<g>
</g>
</svg>
