<?xml version="1.0" encoding="iso-8859-1"?>
<!-- Generator: Adobe Illustrator 16.0.0, SVG Export Plug-In . SVG Version: 6.00 Build 0)  -->
<!DOCTYPE svg PUBLIC "-//W3C//DTD SVG 1.1//EN" "http://www.w3.org/Graphics/SVG/1.1/DTD/svg11.dtd">
<svg version="1.1" id="Capa_1" xmlns="http://www.w3.org/2000/svg" xmlns:xlink="http://www.w3.org/1999/xlink" x="0px" y="0px"
	 width="97.651px" height="97.651px" viewBox="0 0 97.651 97.651" style="enable-background:new 0 0 97.651 97.651;"
	 xml:space="preserve">
<g>
	<g>
		<circle cx="26.775" cy="19.189" r="8.208"/>
		<path d="M30.406,38.485c3.016,1.508,6.168,2.27,9.485,2.27c3.769,0,7.749-0.972,11.974-2.911c1.6-0.734,2.302-2.626,1.566-4.226
			c-0.733-1.599-2.625-2.301-4.226-1.567c-8.02,3.68-14.257,3.01-20.227-2.176c-0.071-0.062-3.402-3.155-8.663-2
			c-8.422,1.849-13.672,6.036-19.593,13.023c-1.139,1.343-0.896,3.375,0.474,4.482c0.59,0.478,1.298,0.709,2.002,0.709
			c0.929,0,1.85-0.404,2.479-1.183c3.846-4.753,5.998-7.031,9.819-8.741l-1.521,15.057c-0.101,0.998,0.063,1.924,0.419,2.756
			l-1.069,12.171L4.639,80.426C3.475,82.34,4.081,84.834,5.995,86c0.658,0.401,1.386,0.593,2.104,0.593
			c1.369,0,2.705-0.693,3.469-1.949l9.183-15.086c0.324-0.533,0.521-1.133,0.575-1.754l0.782-8.912l7.265,7.845L25.906,81.75
			c-0.477,2.188,0.911,4.35,3.1,4.826c0.291,0.062,0.581,0.094,0.867,0.094c1.866,0,3.546-1.295,3.959-3.193l3.917-17.082
			c0.282-1.295-0.086-2.646-0.987-3.619l-8.085-8.729c0.142-0.41,0.244-0.844,0.291-1.311L30.406,38.485z"/>
		<path d="M79.823,54.458c-3.266,0.307-6.003,0.02-7.795-0.297l-1.31-3.008l-9.534-1.057l-10.04,4.369l-4.208-1.148
			c-0.957-0.258-1.935,0.302-2.194,1.253c-0.26,0.952,0.302,1.935,1.253,2.194l4.296,1.172l1.784,4.101
			c-1.054,1.67-3.14,4.543-6.078,6.517c-0.819,0.551-1.037,1.66-0.487,2.479c0.346,0.515,0.91,0.791,1.485,0.791
			c0.342,0,0.688-0.099,0.994-0.304c1.831-1.23,3.362-2.73,4.59-4.162c-0.602,1.172-1.342,2.376-2.262,3.473
			c-0.635,0.756-0.535,1.883,0.221,2.518c0.335,0.28,0.742,0.418,1.146,0.418c0.511,0,1.018-0.217,1.37-0.64
			c2.752-3.28,4.158-7.233,4.776-9.427l13.757-5.984c1.405,0.238,3.251,0.447,5.414,0.447c0.988,0,2.045-0.043,3.154-0.148
			c0.981-0.092,1.704-0.963,1.61-1.945C81.677,55.088,80.808,54.364,79.823,54.458z"/>
		<path d="M71.494,47.606c0.32,0.001,0.641,0,0.961,0c0.938,0,1.83-0.199,2.671-0.625c1.427-0.722,2.613-2.164,1.989-3.98
			c-0.572-1.667-5.024-1.225-5.507-1.398c-1.43-0.513-2.255-1.482-3.743-1.797c-0.26-0.055-0.521-0.11-0.784-0.138
			c-0.158-0.016-0.234-0.081-0.28-0.225c-0.156-0.491-0.312-0.981-0.479-1.469c-0.3-0.872-0.875-1.533-1.77-1.735
			c-0.357-0.082-1.979-0.147-1.599,2.328c0.083,0.539,0.12,1.094,0.083,1.635c-0.14,1.985-0.565,3.93-0.935,5.882
			c-0.168,0.891-0.336,1.781-0.503,2.668l8.938,0.964C70.538,49.715,71.263,47.605,71.494,47.606z"/>
		<path d="M88.086,39c-4.597,0.582-9.142,2.016-8.937,3.633c0.203,1.616,4.964,1.874,9.56,1.292
			c4.595-0.582,9.141-2.016,8.936-3.633C97.439,38.677,92.68,38.418,88.086,39z"/>
	</g>
</g>
<g>
</g>
<g>
</g>
<g>
</g>
<g>
</g>
<g>
</g>
<g>
</g>
<g>
</g>
<g>
</g>
<g>
</g>
<g>
</g>
<g>
</g>
<g>
</g>
<g>
</g>
<g>
</g>
<g>
</g>
</svg>
